<svg xmlns="http://www.w3.org/2000/svg" width="1254" height="836" viewBox="0 0 1254 836">
<g>
<path d="M 1002.00 474.61 C1002.00,474.37 1003.33,470.64 1004.96,466.34 C1006.58,462.03 1012.38,445.90 1017.84,430.50 C1030.53,394.73 1044.72,355.83 1047.09,350.30 L 1048.93 346.00 L 1077.66 346.00 L 1078.74 349.25 C1079.33,351.04 1085.29,367.35 1091.98,385.50 C1098.67,403.65 1104.73,420.30 1105.45,422.50 C1106.17,424.70 1110.63,437.22 1115.38,450.33 C1120.12,463.44 1124.00,474.37 1124.00,474.61 C1124.00,474.86 1117.84,474.93 1110.31,474.78 L 1096.61 474.50 L 1091.10 459.73 L 1085.59 444.96 L 1062.69 445.23 L 1039.79 445.50 L 1034.53 460.00 L 1029.28 474.50 L 1015.64 474.78 C1008.14,474.93 1002.00,474.86 1002.00,474.61 ZM 915.00 377.04 L 917.49 376.41 C918.85,376.07 932.24,375.97 947.24,376.18 C972.99,376.55 974.78,376.70 979.50,378.84 C989.71,383.47 993.67,389.67 995.07,403.20 C996.87,420.55 993.20,432.15 984.05,438.09 L 981.60 439.68 L 986.96 452.59 C989.90,459.69 993.14,467.65 994.16,470.28 L 996.01 475.06 L 982.84 474.78 L 969.67 474.50 L 965.24 463.50 C962.81,457.45 960.00,450.48 959.01,448.00 L 957.20 443.50 L 939.51 443.50 L 939.50 459.00 L 939.50 474.50 L 927.25 474.78 L 915.00 475.06 L 915.00 377.04 ZM 848.68 473.90 C842.20,472.38 836.47,467.66 833.33,461.25 L 830.50 455.50 L 830.50 396.50 L 833.76 390.27 C839.93,378.44 848.70,375.75 879.50,376.21 L 898.50 376.50 L 898.78 387.75 L 899.07 399.00 L 879.49 399.00 C859.92,399.00 859.91,399.00 857.40,401.51 C855.30,403.61 854.94,404.80 855.20,408.76 L 855.50 413.50 L 866.50 413.71 C872.55,413.82 881.44,413.93 886.25,413.96 L 895.00 414.00 L 895.00 436.00 L 855.00 436.00 L 855.00 440.95 C855.00,446.97 856.63,450.88 859.42,451.54 C860.56,451.81 869.83,452.14 880.00,452.27 L 898.50 452.50 L 898.78 463.75 L 899.07 475.00 L 875.78 474.90 C862.98,474.84 850.78,474.40 848.68,473.90 ZM 768.00 399.00 L 739.93 399.00 L 740.22 387.75 L 740.50 376.50 L 817.50 376.50 L 817.78 387.75 L 818.07 399.00 L 792.00 399.00 L 792.00 475.00 L 768.00 475.00 L 768.00 399.00 ZM 1135.50 376.50 L 1157.50 376.50 L 1158.02 475.00 L 1134.98 475.00 ZM 1062.50 419.50 L 1051.00 391.50 L 1040.25 418.50 L 1029.50 445.50 L 1062.50 419.50 ZM 956.50 410.00 L 956.50 399.00 L 939.75 399.00 L 939.50 409.75 L 939.50 420.50 L 948.00 420.50 L 956.50 420.50 L 956.50 410.00 Z"/>
<path d="M 607.00 375.93 L 629.50 376.50 L 629.76 425.75 L 630.02 475.00 L 607.00 475.00 L 607.00 375.93 ZM 649.24 425.78 L 649.50 376.50 L 660.00 376.35 C665.78,376.26 669.74,376.40 668.81,376.66 C666.22,377.37 667.83,380.00 670.86,380.02 C672.31,380.02 674.17,380.47 675.00,381.00 C676.02,381.66 673.06,381.97 665.75,381.98 L 655.00 382.00 L 654.91 390.75 C654.14,468.14 654.19,470.29 656.55,470.06 C658.52,469.86 659.01,463.82 658.97,440.50 C658.95,427.30 658.95,409.41 658.97,400.75 L 659.00 385.00 L 661.75 385.02 C663.89,385.03 664.17,385.24 663.00,386.00 C661.91,386.70 661.86,386.97 662.81,386.98 C663.53,386.99 663.86,387.41 663.55,387.91 C663.24,388.42 664.23,389.28 665.74,389.84 C668.24,390.75 668.29,390.85 666.25,390.92 L 664.00 391.00 L 664.00 432.00 L 677.75 432.12 C686.26,432.19 690.36,432.53 688.50,433.00 C686.85,433.42 683.20,433.82 680.39,433.88 C671.62,434.08 666.00,435.16 666.00,436.64 C666.00,437.39 665.54,438.00 664.97,438.00 C664.31,438.00 664.04,443.48 664.22,453.75 C664.46,466.96 664.74,469.50 666.00,469.50 C667.24,469.50 667.59,467.06 668.00,455.50 L 668.50 441.50 L 678.73 441.61 C685.83,441.69 689.48,442.15 690.67,443.11 C691.61,443.87 692.09,444.00 691.72,443.39 C691.28,442.65 691.95,442.46 693.78,442.81 C695.28,443.10 695.92,443.53 695.21,443.76 C694.22,444.09 694.19,444.52 695.08,445.60 C696.07,446.79 694.47,447.00 684.53,447.00 L 672.81 447.00 L 673.50 474.50 L 661.24 474.78 L 648.98 475.06 ZM 625.00 425.83 C625.00,382.67 624.97,382.00 623.00,382.00 C621.03,382.00 621.00,382.67 621.00,425.33 C621.00,449.17 621.22,468.89 621.50,469.17 C621.78,469.44 622.67,469.67 623.50,469.67 C624.81,469.67 625.00,464.13 625.00,425.83 ZM 616.00 425.39 C616.00,382.67 615.97,382.00 614.00,382.00 C612.03,382.00 612.00,382.67 612.00,425.33 C612.00,449.17 612.27,468.94 612.60,469.26 C612.93,469.59 613.83,469.62 614.60,469.32 C615.77,468.87 616.00,461.70 616.00,425.39 ZM 697.30 442.58 C697.49,441.99 699.13,441.36 700.93,441.18 C705.04,440.78 704.19,442.60 699.99,443.00 C697.14,443.28 697.00,443.60 697.30,442.58 Z"/>
<path d="M 506.46 473.75 C506.19,473.06 506.10,450.90 506.24,424.50 L 506.50 376.50 L 538.00 376.55 C567.69,376.60 569.76,376.72 574.00,378.68 C579.60,381.26 584.25,385.67 587.22,391.23 C589.29,395.11 589.50,396.82 589.50,410.00 C589.50,424.02 589.41,424.66 586.75,429.18 C584.20,433.52 581.74,436.00 577.52,438.51 C575.98,439.42 576.42,440.94 582.00,454.01 C585.40,461.98 588.82,469.81 589.59,471.40 C590.37,473.00 591.00,474.48 591.00,474.68 C591.00,474.89 585.10,474.93 577.89,474.78 L 564.78 474.50 L 559.40 462.00 C556.44,455.12 553.53,448.04 552.93,446.25 L 551.84 443.00 L 531.00 443.00 L 531.00 475.00 L 518.97 475.00 C510.27,475.00 506.80,474.65 506.46,473.75 ZM 320.45 473.74 C320.16,472.98 320.05,467.89 320.21,462.43 L 320.50 452.50 L 324.00 452.41 C325.92,452.36 340.15,452.25 355.60,452.16 L 383.71 452.00 L 386.35 449.55 C388.81,447.27 389.00,446.50 389.00,438.64 C389.00,430.46 388.90,430.09 386.00,427.65 C382.75,424.92 380.99,424.57 362.56,422.97 C345.68,421.51 335.70,418.99 329.30,413.65 C330.07,414.09 330.63,413.87 331.50,413.23 C333.19,411.99 332.59,409.49 329.82,406.20 C328.60,404.74 327.64,403.30 326.89,401.68 C329.12,406.04 333.22,410.08 337.91,412.42 C344.01,415.47 344.94,415.65 363.50,417.44 C382.86,419.31 386.98,420.33 390.66,424.17 C393.44,427.07 393.50,427.38 393.50,438.49 C393.50,449.22 393.36,449.99 391.00,452.51 C386.41,457.41 386.02,457.47 355.08,458.00 C332.14,458.39 325.57,458.79 325.23,459.80 C324.88,460.86 330.73,461.05 356.15,460.80 C385.39,460.52 387.73,460.37 390.90,458.50 C396.67,455.11 398.50,450.17 398.50,438.00 C398.50,428.83 398.21,427.04 396.23,423.85 C391.97,417.01 388.39,415.81 365.10,413.48 C346.71,411.63 341.58,410.14 335.65,404.92 C334.81,404.18 334.08,403.49 333.45,402.82 C333.78,401.98 333.93,398.28 333.80,394.00 C333.73,391.83 333.67,389.91 333.64,388.19 C334.16,396.42 336.49,399.96 342.81,403.34 C347.40,405.81 350.41,406.44 365.31,408.07 C384.02,410.13 390.32,411.34 393.70,413.55 C400.93,418.26 404.00,425.68 403.99,438.43 C403.98,451.25 400.95,458.48 393.76,463.28 C388.47,466.83 387.44,467.00 358.30,467.39 C335.60,467.69 326.49,467.50 324.25,466.73 C325.74,467.23 341.13,467.43 358.75,467.22 C389.18,466.87 390.30,466.72 395.50,462.78 C403.94,456.47 408.00,447.82 408.00,437.61 C408.00,424.98 404.46,416.53 397.26,412.09 C392.66,409.26 388.14,408.23 371.16,406.47 C354.93,404.78 349.86,403.67 345.21,400.92 C337.39,396.26 334.50,390.00 334.50,378.43 C334.50,366.76 337.14,360.75 344.50,355.57 C351.00,351.00 353.84,350.50 381.50,350.34 L 403.50 350.22 L 403.78 363.11 L 404.07 376.00 L 381.50 375.93 C358.23,375.87 356.23,376.08 352.87,378.65 C349.25,381.44 348.54,384.29 348.18,396.99 C347.98,404.52 348.22,410.81 348.75,413.20 C349.94,418.51 354.91,422.46 361.49,423.58 C363.63,423.94 373.64,424.94 383.51,425.78 C405.31,427.66 409.00,428.80 413.50,434.50 C417.39,439.37 418.00,442.22 418.00,452.00 C418.00,461.39 417.64,463.43 414.99,468.18 C409.59,477.81 404.64,480.22 388.27,481.52 C382.94,481.98 369.03,482.30 357.27,482.23 L 336.00 482.09 L 335.73 468.65 C335.58,461.14 335.31,453.91 335.12,452.50 C334.48,448.49 334.04,448.01 332.00,448.00 C330.89,448.00 329.49,448.45 328.87,449.00 C327.66,450.08 327.50,453.49 327.50,474.00 C327.50,498.22 327.63,498.00 321.00,498.00 C317.80,498.00 314.95,497.55 314.69,497.00 C314.05,495.55 314.50,452.06 315.19,451.37 C315.51,451.05 316.81,451.03 318.00,451.33 C319.38,451.68 320.00,453.05 320.00,455.83 C320.00,460.48 320.61,461.00 325.50,461.00 L 330.50 461.00 L 330.81 439.00 L 331.13 417.00 L 328.31 417.00 C326.15,417.00 325.50,417.55 325.50,419.50 C325.50,422.62 324.78,423.00 320.50,423.00 C315.95,423.00 315.50,422.63 315.50,419.00 C315.50,416.57 316.17,414.00 317.00,413.00 C318.42,411.20 320.23,411.00 345.25,411.00 C370.89,411.00 372.03,410.91 374.25,408.69 C376.88,406.06 377.00,405.23 377.00,390.00 C377.00,374.78 376.88,373.94 374.25,371.31 C371.50,368.56 370.61,368.50 345.25,368.50 L 319.00 368.50 L 318.96 391.00 C318.93,403.75 318.67,414.21 318.36,414.97 C317.67,416.71 313.51,417.00 310.66,415.50 C308.78,414.51 308.50,412.20 308.50,390.39 C308.50,362.16 308.83,360.00 313.93,360.00 C315.47,360.00 316.00,360.65 316.00,362.50 C316.00,364.70 316.46,365.00 320.50,365.00 C325.03,365.00 325.00,364.97 325.00,361.00 C325.00,357.80 325.52,356.39 327.00,355.50 C328.95,354.27 332.15,354.00 357.23,354.00 C382.40,354.00 385.48,354.20 387.35,355.59 C388.47,356.43 390.03,358.56 390.84,360.47 C392.18,363.68 392.50,367.36 392.50,385.50 C392.50,407.36 392.23,407.12 384.25,411.40 C379.46,414.00 371.01,415.48 360.87,415.96 L 353.50 416.29 L 354.25 418.65 C354.66,419.93 355.00,424.00 355.00,427.50 C355.00,434.61 356.35,437.00 361.77,437.00 C364.15,437.00 365.00,437.45 365.00,438.83 C365.00,440.20 363.85,440.66 360.50,440.66 C356.39,440.66 356.00,441.00 356.00,444.00 C356.00,447.17 356.32,447.34 360.50,447.00 C363.14,446.78 365.37,446.25 365.54,445.83 C365.70,445.42 366.44,445.64 367.18,446.40 C368.31,447.57 368.00,448.17 364.93,449.65 C360.01,452.08 359.00,455.29 359.00,466.00 C359.00,473.77 358.67,475.31 356.75,476.15 C354.54,477.12 353.71,476.88 352.25,474.50 C350.09,471.06 350.00,470.16 350.00,448.50 C350.00,428.50 349.84,426.00 348.00,426.00 C346.35,426.00 346.00,427.60 346.00,436.50 C346.00,447.97 345.71,447.00 349.00,447.00 C350.87,447.00 351.00,447.33 351.00,451.50 C351.00,455.57 350.69,456.00 348.50,456.00 C345.95,456.00 345.94,456.05 344.74,463.50 C344.08,467.62 343.29,471.43 343.00,472.00 C342.39,473.20 338.80,473.41 337.30,472.30 C336.11,471.38 336.00,469.50 336.00,452.65 C336.00,434.82 335.78,434.00 333.50,434.00 C330.95,434.00 330.95,434.00 331.23,451.25 L 331.50 468.50 L 348.75 468.78 C364.15,469.03 366.15,469.23 367.75,470.58 C369.02,471.65 369.66,473.30 369.56,475.00 L 369.40,477.50 L 347.45 477.78 C334.39,477.94 324.35,477.70 322.88,477.23 C321.05,476.64 320.79,475.20 320.45,473.74 ZM 427.80 475.05 C427.97,474.88 428.00,452.09 427.88,424.58 L 427.66 377.50 L 444.58 377.22 L 461.50 376.93 L 461.78 425.72 L 462.07 474.50 L 445.06 474.78 C435.72,474.93 427.63,475.22 427.80,475.05 ZM 404.50 425.39 C404.50,382.67 404.47,382.00 402.50,382.00 C400.53,382.00 400.50,382.67 400.50,425.33 C400.50,449.17 400.77,468.94 401.10,469.26 C401.43,469.59 402.33,469.62 403.10,469.32 C404.27,468.87 404.50,461.70 404.50,425.39 ZM 395.50 425.39 C395.50,382.67 395.47,382.00 393.50,382.00 C391.53,382.00 391.50,382.67 391.50,425.33 C391.50,449.17 391.72,468.89 392.00,469.17 C392.28,469.44 393.17,469.67 394.00,469.67 C395.31,469.67 395.50,464.13 395.50,425.39 ZM 531.00 410.00 L 531.00 399.00 L 548.25 399.00 C556.76,399.00 565.80,398.55 568.00,398.00 C572.02,397.00 572.02,397.00 568.00,396.00 C565.78,395.44 556.74,395.00 548.00,395.00 L 531.00 395.00 L 531.00 384.00 C531.00,375.19 530.80,373.00 529.75,373.00 C529.06,373.00 528.17,373.61 527.75,374.36 C527.14,375.42 527.00,388.09 527.00,425.68 C527.00,463.27 527.14,475.94 527.75,477.00 C528.59,478.44 530.22,478.56 531.28,477.25 C531.74,476.66 531.95,465.73 531.83,452.75 L 531.61 427.50 L 549.78 427.61 C567.91,427.72 568.00,427.73 568.00,425.80 C568.00,423.87 567.91,423.88 548.94,424.06 L 531.00 424.28 L 531.00 410.00 Z"/>
<path d="M 258.94 473.65 C249.96,471.20 242.99,463.84 240.97,454.68 C240.45,452.29 240.18,445.45 240.12,437.18 C240.28,443.54 240.58,447.00 241.00,447.00 C241.55,447.00 242.00,446.07 242.00,444.94 C242.00,443.81 242.40,443.13 242.89,443.43 C244.50,444.43 244.97,439.68 244.99,422.30 C244.99,416.30 245.19,410.10 245.48,405.66 C244.74,418.56 244.96,447.71 246.10,453.03 C247.30,458.63 251.39,464.12 256.22,466.62 C261.01,469.09 266.64,469.77 283.25,469.89 C298.11,469.99 299.00,469.89 299.00,468.10 C299.00,466.30 297.91,466.17 280.66,465.85 L 262.33 465.50 L 258.00 462.50 C250.41,457.24 249.55,454.01 249.18,429.20 C248.98,416.07 249.28,405.90 249.97,402.70 C251.39,396.04 254.91,390.99 260.26,387.93 C264.22,385.66 265.64,385.48 281.75,385.17 C296.24,384.89 299.00,384.60 299.00,383.34 C299.00,382.05 296.37,381.89 280.25,382.17 C261.78,382.50 261.43,382.54 256.73,385.31 C251.47,388.40 247.66,393.62 246.13,399.83 C246.86,396.33 246.81,394.52 245.97,392.95 C245.00,391.12 244.60,390.99 243.53,392.13 C242.68,393.05 242.00,394.54 241.49,396.85 C241.63,395.78 241.77,394.98 241.93,394.50 C243.60,389.36 253.12,379.95 258.50,378.10 C261.16,377.19 269.42,376.58 283.21,376.27 L 303.91 375.80 L 304.50 378.15 C304.82,379.44 304.96,384.55 304.79,389.50 L 304.50 398.50 L 287.50 399.01 C278.15,399.30 269.70,399.91 268.71,400.38 C264.67,402.32 264.00,405.97 264.00,426.00 C264.00,446.59 264.71,450.05 269.24,451.66 C270.48,452.10 278.81,452.37 287.74,452.25 C297.92,452.12 302.23,451.73 303.95,453.66 C305.45,455.32 305.02,458.72 304.79,465.50 L 304.50 474.50 L 284.00 474.69 C270.23,474.82 262.00,474.48 258.94,473.65 ZM 299.75 459.75 C299.46,458.85 294.96,458.36 283.74,458.00 C270.01,457.56 267.81,457.25 265.32,455.43 C259.57,451.21 259.00,448.55 259.00,426.00 C259.00,403.45 259.57,400.79 265.32,396.57 C267.80,394.75 270.00,394.44 283.82,394.00 C304.87,393.33 304.19,391.58 282.75,391.25 C267.49,391.02 266.26,391.14 262.50,393.26 C255.16,397.40 254.50,400.09 254.50,426.00 C254.50,452.40 255.12,455.02 261.50,459.26 C265.59,461.94 267.48,462.22 284.25,462.62 C298.27,462.96 302.00,463.29 302.00,464.50 C302.00,466.67 300.54,461.94 299.75,459.75 Z"/>
<path d="M 86.00 411.50 L 86.00 348.00 L 123.89 348.00 C168.22,348.00 168.96,348.12 177.59,356.54 C185.10,363.87 187.43,371.66 187.45,389.50 C187.48,408.24 184.98,416.81 177.33,424.21 C170.47,430.84 167.82,431.36 137.50,431.96 L 110.50 432.50 L 110.23 453.75 L 109.96 475.00 L 97.98 475.00 L 86.00 475.00 L 86.00 411.50 ZM 95.27 467.08 C95.52,466.11 95.77,441.11 95.81,411.54 C95.85,381.97 96.16,357.51 96.50,357.17 C97.54,356.13 158.18,356.97 162.31,358.08 C167.50,359.48 174.50,366.58 176.19,372.16 C177.00,374.85 177.50,381.82 177.50,390.50 C177.50,406.45 176.20,411.50 170.74,416.73 C164.71,422.51 159.65,423.36 131.04,423.44 L 105.50 423.50 L 105.23 394.25 L 104.97,365.00 L 128.23,365.02 C153.69,365.05 159.11,365.78 163.27,369.76 C167.95,374.24 170.01,387.07 167.98,399.09 C166.97,405.13 166.17,407.03 163.57,409.63 C158.88,414.32 154.88,414.99 131.25,414.99 C113.03,415.00 110.00,415.21 110.00,416.50 C110.00,417.79 113.17,418.00 132.56,418.00 C145.87,418.00 156.93,417.54 159.55,416.88 C169.53,414.37 173.44,405.77 172.84,387.64 C172.43,374.85 170.85,370.62 164.59,365.55 L 160.82,362.50 L 130.66,362.50 L 100.50 362.50 L 100.50 416.00 C100.50,468.83 100.52,469.50 102.50,469.50 C104.43,469.50 104.51,468.74 104.77,448.25 L 105.04 427.00 L 130.47 427.00 C145.25,427.00 158.12,426.54 161.20,425.89 C171.95,423.64 178.00,418.00 180.65,407.76 C182.52,400.56 182.44,377.84 180.52,371.39 C178.74,365.38 173.27,358.73 167.64,355.72 C163.62,353.56 162.46,353.49 127.25,353.19 L 91.00 352.89 L 91.00 410.78 C91.00,442.62 91.27,468.94 91.60,469.26 C92.60,470.26 94.77,468.97 95.27,467.08 ZM 157.30 408.20 C161.51,406.42 163.00,401.68 163.00,390.10 C163.00,379.22 162.28,376.28 158.87,373.10 C156.72,371.09 155.60,371.00 133.31,371.00 L 110.00 371.00 L 110.00 389.93 L 110.00 408.87 L 112.75 409.26 C119.15,410.18 154.62,409.33 157.30,408.20 ZM 201.24 425.78 L 201.50 376.50 L 212.72 376.22 C223.69,375.94 223.96,375.99 224.47,378.22 C224.76,379.47 224.88,401.65 224.75,427.50 L 224.50 474.50 L 212.74 474.78 L 200.98 475.06 Z"/>
</g>
</svg>